<svg width="612" height="97" viewBox="0 0 612 97" fill="none" xmlns="http://www.w3.org/2000/svg">
<rect x="61.8827" y="2.5" width="487.716" height="92" stroke="black" stroke-width="5"/>
<path d="M256.922 58.0009L256.222 55.6209L251.392 39.5209L247.682 52.0509C251.415 55.5043 254.495 57.4876 256.922 58.0009ZM237.742 58.0709L234.592 54.6409C236.738 51.7009 239.258 50.0209 242.152 49.6009L247.122 33.9909C247.495 32.8243 247.682 31.9376 247.682 31.3309C247.682 29.5576 247.285 28.4609 246.492 28.0409H256.922C256.035 28.4609 255.592 29.4876 255.592 31.1209C255.592 31.6809 255.732 32.4043 256.012 33.2909L263.712 57.1609C264.505 56.7876 265.788 56.1109 267.562 55.1309C266.535 57.0443 265.508 58.5376 264.482 59.6109L267.282 68.2209C267.748 69.6676 268.005 70.4143 268.052 70.4609C268.332 71.1609 268.775 71.7909 269.382 72.3509L271.412 73.5409H257.342L259.092 72.3509C260.072 72.1176 260.562 71.4176 260.562 70.2509C260.562 69.9709 260.398 69.2943 260.072 68.2209L258.252 62.2709C255.358 61.6643 251.555 59.1209 246.842 54.6409L246.562 55.6209L241.172 72.3509C240.892 73.2376 240.752 73.9376 240.752 74.4509C240.752 75.2443 241.428 75.9209 242.782 76.4809L239.912 76.6209H235.292L231.792 76.4809C232.912 76.1076 233.612 75.6876 233.892 75.2209C234.032 74.9876 234.312 74.2176 234.732 72.9109L241.312 52.4009C239.305 52.5409 237.555 53.4043 236.062 54.9909L237.742 58.0709ZM284.074 54.3609C283.98 49.5076 283.817 44.5843 283.584 39.5909L278.054 36.5109L277.214 57.0209L279.314 58.8409L284.074 54.3609ZM290.094 36.7909L290.024 55.2009L289.604 71.9309C285.31 75.7109 281.414 78.9776 277.914 81.7309C276.607 82.7576 275.674 83.2709 275.114 83.2709C274.927 83.2709 274.764 83.2009 274.624 83.0609L271.334 77.3209C270.727 75.9676 270.424 75.0343 270.424 74.5209C270.424 73.9609 270.774 73.4709 271.474 73.0509L277.914 69.2709V69.5509C276.934 70.4843 276.374 71.3476 276.234 72.1409C276.514 73.3076 276.91 74.9876 277.424 77.1809C277.657 78.2543 277.867 78.7676 278.054 78.7209C278.38 78.6743 279.78 77.5776 282.254 75.4309C283.374 74.4509 284.027 73.4476 284.214 72.4209V70.3909C284.214 70.5309 284.167 66.0043 284.074 56.8109L278.754 63.1809L271.894 59.1209L270.354 43.3009L277.494 32.8709L283.444 36.0209C283.397 34.6676 283.35 33.5709 283.304 32.7309C284.144 33.3843 285.59 34.1776 287.644 35.1109C289.277 35.8576 290.094 36.4176 290.094 36.7909ZM298.4 43.7209L296.3 40.9209C295.553 39.9409 295.18 38.8909 295.18 37.7709C295.18 37.3509 295.296 37.0009 295.53 36.7209C295.996 36.1143 298.283 34.5976 302.39 32.1709C303.93 33.2909 305.563 34.5276 307.29 35.8809C309.763 37.8409 310.883 39.4276 310.65 40.6409L310.37 56.6009L312.96 56.7409L307.92 62.4109C306.753 63.2509 305.913 63.6709 305.4 63.6709C304.933 63.6709 304.77 63.3909 304.91 62.8309V60.3109L300.43 63.1109C298.376 63.4843 296.463 59.4243 294.69 50.9309C295.483 49.3443 296.93 48.0843 299.03 47.1509L303.65 45.0509C302.063 46.7776 301.293 48.1309 301.34 49.1109C301.246 49.7643 301.2 50.4176 301.2 51.0709C301.2 54.1976 301.876 56.6709 303.23 58.4909C303.976 58.5843 304.49 58.1643 304.77 57.2309V36.7209L303.72 37.2809C303.486 37.4209 302.856 37.8176 301.83 38.4709C300.103 39.5443 299.24 40.5009 299.24 41.3409L299.87 43.6509L298.4 43.7209ZM314.03 68.8509H323.69C322.244 68.0576 321.637 66.7976 321.87 65.0709C322.244 62.2709 322.5 58.4676 322.64 53.6609C322.78 48.7609 322.757 44.5376 322.57 40.9909H316.27C316.597 45.5176 316.76 49.6476 316.76 53.3809C316.76 58.3276 316.504 62.4576 315.99 65.7709C315.757 67.2176 315.104 68.2443 314.03 68.8509ZM318.58 28.7409C319.187 29.1609 319.91 29.3709 320.75 29.3709C320.937 29.3709 321.24 29.3243 321.66 29.2309C322.08 29.1376 322.384 29.0909 322.57 29.0909C323.084 29.0909 323.34 31.2143 323.34 35.4609C321.987 36.7676 320.4 37.5143 318.58 37.7009C317.46 36.4876 316.55 34.8076 315.85 32.6609C315.944 31.9143 316.014 31.1909 316.06 30.4909C316.387 29.4176 317.227 28.8343 318.58 28.7409ZM325.635 43.6509C328.015 42.0176 330.722 39.9876 333.755 37.5609V43.8609C334.642 42.7876 335.762 41.5509 337.115 40.1509C339.075 38.6576 340.242 37.9109 340.615 37.9109C340.848 37.9109 341.012 37.9809 341.105 38.1209L345.095 43.8609C345.142 43.9076 345.165 51.5376 345.165 66.7509C345.165 67.2176 344.932 67.5209 344.465 67.6609L338.025 71.4409V71.1609C339.005 70.2276 339.565 69.3643 339.705 68.5709C339.658 60.7309 339.448 52.5643 339.075 44.0709C338.608 43.1376 337.722 42.8576 336.415 43.2309C336.275 43.2776 335.458 44.2809 333.965 46.2409C333.825 51.5609 333.942 57.2543 334.315 63.3209C334.408 64.8143 335.132 65.7243 336.485 66.0509C335.832 66.0509 334.828 66.0276 333.475 65.9809C332.168 65.9343 331.188 65.9109 330.535 65.9109C330.115 65.9109 329.462 65.9343 328.575 65.9809C327.735 66.0276 327.105 66.0509 326.685 66.0509C327.898 65.5376 328.622 65.1176 328.855 64.7909C329.042 64.6043 329.135 64.1376 329.135 63.3909L329.275 43.5109L325.635 43.6509ZM353.205 62.1309L352.995 52.5409L353.275 52.6109L353.345 52.0509L357.895 46.8709C359.201 48.6909 360.858 49.9743 362.865 50.7209C363.705 50.3009 364.638 49.5543 365.665 48.4809C366.691 47.3609 367.321 46.4043 367.555 45.6109L367.415 34.8309C367.088 33.4776 366.365 32.3809 365.245 31.5409C364.451 31.0743 363.285 30.5843 361.745 30.0709L358.735 29.0209C357.335 33.4076 356.635 35.9743 356.635 36.7209C356.635 36.9543 356.658 37.1643 356.705 37.3509C356.611 37.6776 356.565 38.0043 356.565 38.3309C356.565 39.5909 357.101 41.0143 358.175 42.6009L349.635 35.1109C350.055 33.6176 350.591 32.4976 351.245 31.7509L356.705 23.9109H358.245C365.805 27.1776 371.381 30.3743 374.975 33.5009C375.021 34.8076 375.045 37.5376 375.045 41.6909C375.045 42.2043 375.091 42.0409 375.185 41.2009C375.231 41.3876 375.255 41.5976 375.255 41.8309C374.881 43.6976 373.155 46.1943 370.075 49.3209C368.721 50.7209 366.925 52.4476 364.685 54.5009L362.865 54.8509C362.165 54.7576 361.698 54.4543 361.465 53.9409C361.091 53.1943 360.578 52.5876 359.925 52.1209L361.255 61.8509C358.035 62.0376 355.351 62.1309 353.205 62.1309ZM356.075 66.1909C355.795 67.0776 355.561 67.6143 355.375 67.8009C355.001 68.1743 354.255 68.3376 353.135 68.2909L353.415 71.3709C354.768 71.3709 355.701 72.2809 356.215 74.1009L360.275 74.2409C360.135 73.2609 360.368 72.4676 360.975 71.8609C361.628 71.2543 362.445 70.9509 363.425 70.9509L363.005 67.5909C361.605 67.7309 360.601 67.0776 359.995 65.6309L356.075 66.1909Z" fill="black"/>
</svg>
